ply
format ascii 1.0
element vertex 33
property float32 x
property float32 y
property float32 z
element face 64
property list uchar int vertex_indices
end_header
-1.00 -2.00 -0.65
 0.95 -0.90 -1.25
 0.80  0.00 -1.25
 1.00  1.40 -1.25
-1.00 -0.90 -1.25
-1.00  1.40 -1.25
 1.00  1.70 -1.10
-1.00  1.70 -1.10
 0.70  2.00 -1.00
-0.70  2.00 -1.00
 1.00 -1.45 -0.95
 1.00 -1.75 -0.80
 0.70 -2.00 -0.65
-1.00 -2.00  0.00
-0.50 -2.00  0.70
 0.10 -2.00  0.70
-0.35 -1.70  1.00
 0.15 -1.70  1.00
 0.40 -1.20  1.05
 0.90 -0.50  0.95
 1.00 -1.45 -0.55
-0.20 -0.50  1.15
 0.40 -0.10  1.25
 0.80  0.00  1.05
 0.85  0.30  1.10
-1.00  0.80  0.00
 1.00  1.40  0.40
 0.85  1.40  0.45
-1.00  1.70 -0.60
-0.70  2.00 -0.70
 0.20  2.00 -0.30
 0.70  2.00 -0.50
 1.00  1.70 -0.30
3  1  4  2
3  2  4  5
3  2  5  3
3  0  4 12
3  4  1 10
3  4 10 12
3 10 11 12
3  3  8  6
3  5  7  9
3  3  9  8
3  5  9  3
3  0 12 13
3 12 15 13
3 13 15 14
3 14 15 16
3 15 17 16
3 16 17 21
3 17 18 21
3 18 22 21
3 18 19 22
3 19 23 22
3 22 23 24
3  2 24 23
3 22 24 25
3 21 22 25
3 10 20 11
3 12 15 18
3 15 18 17
3 11 20 12
3 12 20 18
3 18 20 19
3 13 14 16
3 13 16 25
3 16 21 25
3  0 13 25
3  4  0 25
3  5  4 25
3  7  5 25
3  1 20 10
3  1 19 20
3  1  2 19
3  2 23 19
3  2 26 24
3  2  3 26
3 24 26 27
3 24 27 25
3 25 27 28
3  9  7 28
3  9 28 29
3  8  9 29
3 28 30 29
3 27 30 28
3  8 29 30
3  3  6 32
3  3 32 26
3  6  8 32
3  8 31 32
3 27 32 31
3 27 31 30
3 26 32 27
3  8 30 31
3  7 25 28
3 12 17 15
3 12 18 17